<?xml version="1.0" encoding="iso-8859-1"?>
<!-- Generator: Adobe Illustrator 19.0.0, SVG Export Plug-In . SVG Version: 6.00 Build 0)  -->
<svg version="1.1" id="Capa_1" xmlns="http://www.w3.org/2000/svg" xmlns:xlink="http://www.w3.org/1999/xlink" x="0px" y="0px"
	 viewBox="0 0 512 512" style="enable-background:new 0 0 512 512;" xml:space="preserve">
<path style="fill:#303C42;" d="M444.875,109.792L338.208,3.125c-2-2-4.708-3.125-7.542-3.125h-224C83.146,0,64,19.135,64,42.667
	v426.667C64,492.865,83.146,512,106.667,512h298.667C428.854,512,448,492.865,448,469.333v-352
	C448,114.5,446.875,111.792,444.875,109.792z"/>
<path style="fill:#E6E6E6;" d="M341.333,36.417l70.25,70.25h-48.917c-11.771,0-21.333-9.573-21.333-21.333V36.417z"/>
<path style="fill:#FFFFFF;" d="M405.333,490.667H106.667c-11.771,0-21.333-9.573-21.333-21.333V42.667
	c0-11.76,9.563-21.333,21.333-21.333H320v64C320,108.865,339.146,128,362.667,128h64v341.333
	C426.667,481.094,417.104,490.667,405.333,490.667z"/>
<linearGradient id="SVGID_1_" gradientUnits="userSpaceOnUse" x1="-30.0002" y1="641.8779" x2="-25.7514" y2="637.6291" gradientTransform="matrix(21.3333 0 0 -21.3333 996.3334 13791.667)">
	<stop  offset="0" style="stop-color:#000000;stop-opacity:0.1"/>
	<stop  offset="1" style="stop-color:#000000;stop-opacity:0"/>
</linearGradient>
<path style="fill:url(#SVGID_1_);" d="M362.667,128c-10.005,0-19.098-3.605-26.383-9.397l-0.259-0.027l90.642,90.642V128H362.667z"
	/>
<path style="fill:#303C42;" d="M255.99,149.313c-59.094,0-106.677,52.531-106.677,96.021c0,35.333,31.542,114.406,73.448,147.083
	c1.875,1.458,4.188,2.25,6.563,2.25h53.354c2.375,0,4.688-0.792,6.563-2.25c41.896-32.667,73.427-111.75,73.427-147.083
	C362.667,201.844,315.083,149.313,255.99,149.313z"/>
<g>
	<path style="fill:#7CB342;" d="M271.014,172.276c19.951,19.948,53.456,57.891-11.323,201.057h-7.404
		c-64.78-143.18-31.262-181.109-11.311-201.059c4.906-0.951,9.898-1.629,15.013-1.629
		C261.108,170.646,266.104,171.324,271.014,172.276z"/>
	<path style="fill:#7CB342;" d="M170.646,245.333c0-18.612,12.309-39.276,30.876-54.22c-13.076,30.046-15.691,80.652,24.245,174.793
		C193.434,332.496,170.646,269.984,170.646,245.333z"/>
	<path style="fill:#7CB342;" d="M286.195,365.944c39.948-94.159,37.34-144.772,24.27-174.824
		c18.564,14.944,30.868,35.604,30.868,54.214C341.333,269.993,318.536,332.544,286.195,365.944z"/>
</g>
<path style="fill:#303C42;" d="M266.667,405.333h-21.333c-5.896,0-10.667,4.771-10.667,10.667v21.333
	c0,5.896,4.771,10.667,10.667,10.667h21.333c5.896,0,10.667-4.771,10.667-10.667V416
	C277.333,410.104,272.563,405.333,266.667,405.333z"/>
<linearGradient id="SVGID_2_" gradientUnits="userSpaceOnUse" x1="-34.2716" y1="632.5668" x2="-26.2393" y2="624.5345" gradientTransform="matrix(21.3333 0 0 -21.3333 996.3334 13791.667)">
	<stop  offset="0" style="stop-color:#000000;stop-opacity:0.1"/>
	<stop  offset="1" style="stop-color:#000000;stop-opacity:0"/>
</linearGradient>
<path style="fill:url(#SVGID_2_);" d="M237.757,444.842l0.027,0.027l-0.025-0.038L237.757,444.842z M352.897,209.217l-0.057,0.082
	c6.249,11.867,9.827,24.271,9.827,36.034c0,35.333-31.531,114.417-73.427,147.083c-1.875,1.458-4.188,2.25-6.563,2.25h-53.354
	c-1.704,0-3.21-0.845-4.711-1.615l-0.189,0.271l14.422,14.421c1.814-1.426,4-2.41,6.488-2.41h21.333
	c5.896,0,10.667,4.771,10.667,10.667v21.333c0,5.896-4.771,10.667-10.667,10.667h-21.333c-2.944,0-5.605-1.19-7.535-3.116
	l46.048,45.783h121.487c11.771,0,21.333-9.573,21.333-21.333V282.987L352.897,209.217z"/>
<linearGradient id="SVGID_3_" gradientUnits="userSpaceOnUse" x1="-46.4381" y1="639.0643" x2="-23.653" y2="628.4363" gradientTransform="matrix(21.3333 0 0 -21.3333 996.3334 13791.667)">
	<stop  offset="0" style="stop-color:#FFFFFF;stop-opacity:0.2"/>
	<stop  offset="1" style="stop-color:#FFFFFF;stop-opacity:0"/>
</linearGradient>
<path style="fill:url(#SVGID_3_);" d="M444.875,109.792L338.208,3.125c-2-2-4.708-3.125-7.542-3.125h-224
	C83.146,0,64,19.135,64,42.667v426.667C64,492.865,83.146,512,106.667,512h298.667C428.854,512,448,492.865,448,469.333v-352
	C448,114.5,446.875,111.792,444.875,109.792z"/>
<g>
</g>
<g>
</g>
<g>
</g>
<g>
</g>
<g>
</g>
<g>
</g>
<g>
</g>
<g>
</g>
<g>
</g>
<g>
</g>
<g>
</g>
<g>
</g>
<g>
</g>
<g>
</g>
<g>
</g>
</svg>
